<?xml version="1.0" standalone="no"?>
<!DOCTYPE svg PUBLIC "-//W3C//DTD SVG 20010904//EN"
 "http://www.w3.org/TR/2001/REC-SVG-20010904/DTD/svg10.dtd">
<svg version="1.0" xmlns="http://www.w3.org/2000/svg"
 width="225.000000pt" height="225.000000pt" viewBox="0 0 225.000000 225.000000"
 preserveAspectRatio="xMidYMid meet">

<g transform="translate(0.000000,225.000000) scale(0.100000,-0.100000)"
fill="#000000" stroke="none">
<path d="M595 1902 c-11 -2 -71 -54 -132 -115 -164 -162 -173 -131 122 -427
l235 -235 -235 -235 c-294 -296 -286 -265 -122 -428 163 -162 132 -171 427
123 l235 235 235 -235 c296 -294 265 -286 428 -122 162 163 171 132 -123 427
l-235 235 235 235 c294 296 286 265 122 428 -163 162 -132 171 -427 -123
l-235 -235 -230 230 c-126 126 -241 233 -255 238 -14 4 -34 6 -45 4z"/>
</g>
</svg>
