<?xml version="1.0" standalone="no"?>
<!DOCTYPE svg PUBLIC "-//W3C//DTD SVG 20010904//EN"
 "http://www.w3.org/TR/2001/REC-SVG-20010904/DTD/svg10.dtd">
<svg version="1.0" xmlns="http://www.w3.org/2000/svg"
 width="348.000000pt" height="270.000000pt" viewBox="0 0 348.000000 270.000000"
 preserveAspectRatio="xMidYMid meet">

<g transform="translate(0.000000,270.000000) scale(0.100000,-0.100000)"
fill="#000000" stroke="none">
<path d="M1268 2675 c-186 -35 -349 -136 -464 -288 -108 -143 -219 -451 -274
-764 l-13 -73 -242 0 c-222 0 -243 -2 -258 -18 -10 -10 -17 -26 -17 -35 0 -22
792 -849 825 -861 15 -6 31 -6 43 0 17 8 718 734 790 817 38 44 39 50 12 77
-19 19 -33 20 -256 20 l-237 0 6 88 c24 325 207 580 466 647 84 21 242 21 346
0 113 -24 211 -59 354 -126 68 -33 130 -59 137 -59 8 0 21 11 29 24 13 19 14
29 6 45 -11 20 -516 328 -646 394 -209 106 -427 146 -607 112z"/>
<path d="M2599 2048 c-22 -18 -737 -764 -777 -811 -38 -44 -39 -50 -12 -77 19
-19 33 -20 256 -20 l237 0 -6 -87 c-24 -327 -207 -581 -467 -648 -83 -22 -240
-21 -345 0 -110 23 -227 65 -366 131 -67 33 -125 54 -134 51 -21 -9 -35 -48
-24 -69 14 -27 621 -386 725 -430 142 -59 248 -81 389 -81 140 -1 210 15 330
73 203 98 333 264 435 555 34 97 90 315 110 433 l13 72 242 0 c230 0 243 1
260 20 14 16 16 26 9 44 -5 13 -189 211 -409 440 -416 432 -423 439 -466 404z"/>
</g>
</svg>
